HIERARCHY
ROOT Hips
{
	OFFSET 0.000000 103.266502 0.000000
	CHANNELS 6 Xposition Yposition Zposition Xrotation Yrotation Zrotation 
	JOINT Spine
	{
		OFFSET -0.002400 12.777504 0.315300
		CHANNELS 3 Xrotation Yrotation Zrotation
		JOINT Spine1
		{
			OFFSET -0.002067 5.816869 0.032633
			CHANNELS 3 Xrotation Yrotation Zrotation
			JOINT Spine1_split
			{
				OFFSET -0.002067 5.816869 0.032633
				CHANNELS 3 Xrotation Yrotation Zrotation
				JOINT Spine2
				{
					OFFSET -0.002067 5.816869 0.032633
					CHANNELS 3 Xrotation Yrotation Zrotation
					JOINT Neck
					{
						OFFSET -0.003700 21.199493 -0.826900
						CHANNELS 3 Xrotation Yrotation Zrotation
						JOINT Head
						{
							OFFSET 0.000000 20.442200 4.834800
							CHANNELS 3 Xrotation Yrotation Zrotation
							JOINT HeadTop_End
							{
								OFFSET 0.000000 34.668396 4.968400
								CHANNELS 3 Xrotation Yrotation Zrotation
								End Site
								{
									OFFSET 0.000000 0.000000 0.000000
								}
							}
						}
					}
					JOINT LeftShoulder
					{
						OFFSET 3.288150 8.794197 -1.372250
						CHANNELS 3 Xrotation Yrotation Zrotation
						JOINT LeftShoulder_split
						{
							OFFSET 3.288150 8.794197 -1.372250
							CHANNELS 3 Xrotation Yrotation Zrotation
							JOINT LeftArm
							{
								OFFSET 11.953299 -2.279007 -0.146200
								CHANNELS 3 Xrotation Yrotation Zrotation
								JOINT LeftForeArm
								{
									OFFSET 18.448900 0.000000 0.000000
									CHANNELS 3 Xrotation Yrotation Zrotation
									JOINT LeftHand
									{
										OFFSET 29.527798 0.000000 0.000000
										CHANNELS 3 Xrotation Yrotation Zrotation
										JOINT LeftHandThumb1
										{
											OFFSET 10.739754 -2.369614 9.225399
											CHANNELS 3 Xrotation Yrotation Zrotation
											JOINT LeftHandThumb2
											{
												OFFSET 4.926170 -2.844131 2.844125
												CHANNELS 3 Xrotation Yrotation Zrotation
												JOINT LeftHandThumb3
												{
													OFFSET 4.614891 -2.664413 2.664409
													CHANNELS 3 Xrotation Yrotation Zrotation
													JOINT LeftHandThumb4
													{
														OFFSET 4.432465 -2.559082 2.559083
														CHANNELS 3 Xrotation Yrotation Zrotation
														End Site
														{
															OFFSET 0.000000 0.000000 0.000000
														}
													}
												}
											}
										}
										JOINT LeftHandIndex1
										{
											OFFSET 26.467674 0.187653 6.405298
											CHANNELS 3 Xrotation Yrotation Zrotation
											JOINT LeftHandIndex2
											{
												OFFSET 8.792900 0.000000 0.000000
												CHANNELS 3 Xrotation Yrotation Zrotation
												JOINT LeftHandIndex3
												{
													OFFSET 10.075203 0.000000 0.000000
													CHANNELS 3 Xrotation Yrotation Zrotation
													End Site
													{
														OFFSET 0.000000 0.000000 0.000000
													}
												}
											}
										}
										JOINT LeftHandMiddle1
										{
											OFFSET 25.764404 0.000000 0.000000
											CHANNELS 3 Xrotation Yrotation Zrotation
											JOINT LeftHandMiddle2
											{
												OFFSET 9.393974 0.000000 0.000000
												CHANNELS 3 Xrotation Yrotation Zrotation
												JOINT LeftHandMiddle3
												{
													OFFSET 10.771950 0.000000 0.000000
													CHANNELS 3 Xrotation Yrotation Zrotation
													End Site
													{
														OFFSET 0.000000 0.000000 0.000000
													}
												}
											}
										}
										JOINT LeftHandRing1
										{
											OFFSET 24.660927 0.144547 -6.225808
											CHANNELS 3 Xrotation Yrotation Zrotation
											JOINT LeftHandRing2
											{
												OFFSET 9.393799 0.000000 0.000000
												CHANNELS 3 Xrotation Yrotation Zrotation
												JOINT LeftHandRing3
												{
													OFFSET 9.928497 0.000000 0.000000
													CHANNELS 3 Xrotation Yrotation Zrotation
													End Site
													{
														OFFSET 0.000000 0.000000 0.000000
													}
												}
											}
										}
										JOINT LeftHandPinky1
										{
											OFFSET 23.655350 0.125290 -12.815412
											CHANNELS 3 Xrotation Yrotation Zrotation
											JOINT LeftHandPinky2
											{
												OFFSET 8.425102 0.000000 0.000000
												CHANNELS 3 Xrotation Yrotation Zrotation
												JOINT LeftHandPinky3
												{
													OFFSET 8.147003 0.000000 0.000000
													CHANNELS 3 Xrotation Yrotation Zrotation
													End Site
													{
														OFFSET 0.000000 0.000000 0.000000
													}
												}
											}
										}
									}
								}
							}
						}
					}
					JOINT RightShoulder
					{
						OFFSET -3.249400 8.794197 -1.372250
						CHANNELS 3 Xrotation Yrotation Zrotation
						JOINT RightShoulder_split
						{
							OFFSET -3.249400 8.794197 -1.372250
							CHANNELS 3 Xrotation Yrotation Zrotation
							JOINT RightArm
							{
								OFFSET -11.953299 -2.279007 -0.146200
								CHANNELS 3 Xrotation Yrotation Zrotation
								JOINT RightForeArm
								{
									OFFSET -18.448900 0.000000 0.000000
									CHANNELS 3 Xrotation Yrotation Zrotation
									JOINT RightHand
									{
										OFFSET -29.527802 0.000000 0.000000
										CHANNELS 3 Xrotation Yrotation Zrotation
										JOINT RightHandThumb1
										{
											OFFSET -10.739754 -2.369614 9.225399
											CHANNELS 3 Xrotation Yrotation Zrotation
											JOINT RightHandThumb2
											{
												OFFSET -4.926170 -2.844131 2.844125
												CHANNELS 3 Xrotation Yrotation Zrotation
												JOINT RightHandThumb3
												{
													OFFSET -4.614891 -2.664413 2.664409
													CHANNELS 3 Xrotation Yrotation Zrotation
													JOINT RightHandThumb4
													{
														OFFSET -4.432465 -2.559082 2.559083
														CHANNELS 3 Xrotation Yrotation Zrotation
														End Site
														{
															OFFSET 0.000000 0.000000 0.000000
														}
													}
												}
											}
										}
										JOINT RightHandIndex1
										{
											OFFSET -26.467674 0.187653 6.405298
											CHANNELS 3 Xrotation Yrotation Zrotation
											JOINT RightHandIndex2
											{
												OFFSET -8.792900 0.000000 0.000000
												CHANNELS 3 Xrotation Yrotation Zrotation
												JOINT RightHandIndex3
												{
													OFFSET -10.075203 0.000000 0.000000
													CHANNELS 3 Xrotation Yrotation Zrotation
													End Site
													{
														OFFSET 0.000000 0.000000 0.000000
													}
												}
											}
										}
										JOINT RightHandMiddle1
										{
											OFFSET -25.764404 0.000000 0.000000
											CHANNELS 3 Xrotation Yrotation Zrotation
											JOINT RightHandMiddle2
											{
												OFFSET -9.393974 0.000000 0.000000
												CHANNELS 3 Xrotation Yrotation Zrotation
												JOINT RightHandMiddle3
												{
													OFFSET -10.771950 0.000000 0.000000
													CHANNELS 3 Xrotation Yrotation Zrotation
													End Site
													{
														OFFSET 0.000000 0.000000 0.000000
													}
												}
											}
										}
										JOINT RightHandRing1
										{
											OFFSET -24.660927 0.144547 -6.225808
											CHANNELS 3 Xrotation Yrotation Zrotation
											JOINT RightHandRing2
											{
												OFFSET -9.393799 0.000000 0.000000
												CHANNELS 3 Xrotation Yrotation Zrotation
												JOINT RightHandRing3
												{
													OFFSET -9.928497 0.000000 0.000000
													CHANNELS 3 Xrotation Yrotation Zrotation
													End Site
													{
														OFFSET 0.000000 0.000000 0.000000
													}
												}
											}
										}
										JOINT RightHandPinky1
										{
											OFFSET -23.655350 0.125290 -12.815412
											CHANNELS 3 Xrotation Yrotation Zrotation
											JOINT RightHandPinky2
											{
												OFFSET -8.425102 0.000000 0.000000
												CHANNELS 3 Xrotation Yrotation Zrotation
												JOINT RightHandPinky3
												{
													OFFSET -8.147003 0.000000 0.000000
													CHANNELS 3 Xrotation Yrotation Zrotation
													End Site
													{
														OFFSET 0.000000 0.000000 0.000000
													}
												}
											}
										}
									}
								}
							}
						}
					}
				}
			}
		}
	}
	JOINT LeftUpLeg
	{
		OFFSET 11.394100 -6.187798 -0.413800
		CHANNELS 3 Xrotation Yrotation Zrotation
		JOINT LeftLeg
		{
			OFFSET 0.430247 -32.302673 3.732800
			CHANNELS 3 Xrotation Yrotation Zrotation
			JOINT LeftFoot
			{
				OFFSET -0.430247 -48.264931 -6.423300
				CHANNELS 3 Xrotation Yrotation Zrotation
				JOINT LeftToeBase
				{
					OFFSET 4.230900 -16.068199 23.438400
					CHANNELS 3 Xrotation Yrotation Zrotation
					JOINT LeftToe_End
					{
						OFFSET 4.510700 0.695400 19.974600
						CHANNELS 3 Xrotation Yrotation Zrotation
						End Site
						{
							OFFSET 0.000000 0.000000 0.000000
						}
					}
				}
			}
		}
	}
	JOINT RightUpLeg
	{
		OFFSET -11.333700 -6.187798 -0.413800
		CHANNELS 3 Xrotation Yrotation Zrotation
		JOINT RightLeg
		{
			OFFSET -0.430392 -32.302628 3.733000
			CHANNELS 3 Xrotation Yrotation Zrotation
			JOINT RightFoot
			{
				OFFSET 0.430392 -48.264973 -6.423500
				CHANNELS 3 Xrotation Yrotation Zrotation
				JOINT RightToeBase
				{
					OFFSET -4.230900 -16.068199 23.438400
					CHANNELS 3 Xrotation Yrotation Zrotation
					JOINT RightToe_End
					{
						OFFSET -4.510700 0.695400 19.974600
						CHANNELS 3 Xrotation Yrotation Zrotation
						End Site
						{
							OFFSET 0.000000 0.000000 0.000000
						}
					}
				}
			}
		}
	}
}
MOTION
Frames: 5
Frame Time: 0.016667
-0.622070 213.151428 1.185234 -4.553527 4.840076 4.491637 4.640782 -0.663595 1.040442 9.932386 -0.680239 3.008162 0.000000 0.000000 0.000000 9.936598 -0.617923 3.002061 -0.494624 1.768444 -5.437060 5.110714 1.939358 -6.547527 0.000001 -0.000001 0.000000 -0.221758 14.341898 -11.465858 0.000000 0.000000 0.000000 4.441018 -10.208753 -60.164473 -0.000002 -50.304442 -0.000005 20.413444 -0.668128 -4.134520 -3.500378 23.141801 9.972872 -2.408845 12.775487 10.381861 -3.572557 4.191483 6.966304 -0.000000 -0.000000 0.000001 0.080927 1.054712 -8.775024 0.139270 1.380632 -11.520082 -0.000000 0.000000 0.000001 0.080634 1.052804 -8.759030 0.139656 1.382525 -11.536055 0.000000 -0.000001 0.000000 0.080928 1.054712 -8.775022 0.139271 1.380633 -11.520081 -0.000002 0.000001 -0.000000 0.683440 5.064133 -8.296779 0.133626 -2.674909 -12.020557 -0.000002 -0.000000 0.000000 1.119626 3.440112 7.346926 0.000000 0.000000 0.000000 -5.089676 8.252989 56.488458 0.000003 38.764537 -0.000010 3.115012 -7.514410 -6.985641 -7.604777 -2.521694 -16.076763 4.602786 -15.232182 -8.617171 -1.023797 -3.032477 -6.344371 0.000000 -0.000001 -0.000004 0.672564 -2.988262 25.363081 0.151865 -1.448115 11.972153 -0.000000 0.000001 0.000002 0.672572 -2.988260 25.363079 0.151850 -1.448115 11.972171 0.000001 0.000001 0.000002 0.672568 -2.988260 25.363084 0.151865 -1.448116 11.972155 -0.000000 0.000000 -0.000001 0.672566 -2.988265 25.363084 0.151863 -1.448117 11.972155 0.000001 0.000000 0.000002 -7.226945 16.305820 7.834006 11.205551 -7.922970 -0.395320 -1.441587 0.404849 -6.301584 -0.000001 0.000005 -0.000001 -0.000000 0.000001 -0.000000 -2.462252 -10.431924 -5.461786 20.847595 5.696976 0.243184 -23.041109 -1.173570 4.364651 -0.000000 -0.000000 -0.000000 -0.000001 0.000000 -0.000000 
-0.639602 213.115479 1.133941 -4.302939 4.847008 4.468802 4.612301 -0.662073 1.054355 9.886747 -0.664535 3.002678 0.000000 0.000000 0.000000 9.891310 -0.602349 2.995064 -0.542381 1.841335 -5.558721 5.225238 2.094423 -6.610318 0.000001 -0.000001 0.000000 -0.219943 14.506514 -11.612862 0.000000 0.000000 0.000000 4.361431 -10.445362 -59.944677 -0.000008 -50.526318 -0.000011 20.043446 -0.258921 -4.095660 -3.500376 23.141799 9.972880 -2.408850 12.775503 10.381876 -3.572555 4.191480 6.966311 0.000000 -0.000000 0.000000 0.080934 1.054719 -8.775000 0.139259 1.380630 -11.520094 0.000001 0.000000 0.000000 0.080631 1.052808 -8.759040 0.139663 1.382529 -11.536051 0.000002 0.000000 -0.000000 0.080931 1.054720 -8.774999 0.139259 1.380629 -11.520095 0.000001 -0.000001 0.000000 0.683431 5.064152 -8.296764 0.133620 -2.674913 -12.020540 -0.000001 -0.000000 -0.000000 1.111069 3.468513 7.163202 0.000000 0.000000 0.000000 -4.424843 9.153709 56.002797 0.000012 39.178631 -0.000019 2.112968 -7.565654 -7.684073 -7.604786 -2.521685 -16.076742 4.602788 -15.232184 -8.617185 -1.023798 -3.032479 -6.344371 0.000000 0.000001 0.000001 0.672567 -2.988251 25.363090 0.151862 -1.448111 11.972165 0.000002 -0.000000 -0.000000 0.672566 -2.988254 25.363093 0.151869 -1.448116 11.972160 0.000000 -0.000000 -0.000001 0.672565 -2.988253 25.363088 0.151862 -1.448112 11.972163 -0.000004 -0.000000 0.000000 0.672567 -2.988254 25.363088 0.151861 -1.448111 11.972163 -0.000002 0.000001 0.000001 -7.747370 16.154953 7.884273 11.601609 -7.916299 -0.396015 -1.645161 0.423046 -6.242894 -0.000002 0.000005 0.000000 -0.000000 -0.000001 -0.000000 -2.772951 -10.414133 -5.451439 20.920717 5.695067 0.244109 -23.190449 -1.176306 4.303149 -0.000002 -0.000001 -0.000000 -0.000001 0.000000 -0.000000 
-0.650012 213.069641 1.079334 -4.040583 4.874396 4.445092 4.580225 -0.663949 1.066396 9.837531 -0.656225 2.999172 0.000000 0.000000 0.000000 9.842312 -0.594124 2.990732 -0.552503 1.913019 -5.689795 5.267444 2.253988 -6.652775 -0.000001 0.000000 -0.000000 -0.217716 14.595752 -11.694879 0.000000 0.000000 0.000000 4.265771 -10.605525 -59.786299 -0.000008 -50.764121 -0.000007 19.817300 0.066157 -4.103488 -3.500379 23.141808 9.972879 -2.408861 12.775497 10.381886 -3.572550 4.191483 6.966302 -0.000000 -0.000000 0.000001 0.080925 1.054722 -8.774995 0.139271 1.380621 -11.520089 0.000001 0.000000 0.000000 0.080636 1.052813 -8.759009 0.139649 1.382518 -11.536067 0.000001 -0.000000 -0.000001 0.080926 1.054721 -8.774994 0.139270 1.380622 -11.520087 -0.000000 0.000000 -0.000001 0.683433 5.064140 -8.296771 0.133618 -2.674899 -12.020539 -0.000002 -0.000000 -0.000001 1.104808 3.548997 6.940646 0.000000 0.000000 0.000000 -3.653386 10.119990 55.385249 0.000006 39.770730 -0.000011 0.971892 -7.983123 -7.726973 -7.604787 -2.521690 -16.076749 4.602791 -15.232188 -8.617195 -1.023797 -3.032474 -6.344383 0.000000 0.000000 -0.000000 0.672561 -2.988259 25.363078 0.151854 -1.448121 11.972172 -0.000001 -0.000001 0.000002 0.672561 -2.988251 25.363084 0.151851 -1.448126 11.972169 -0.000002 -0.000000 -0.000001 0.672561 -2.988257 25.363078 0.151858 -1.448121 11.972172 -0.000002 -0.000001 -0.000000 0.672561 -2.988260 25.363081 0.151853 -1.448122 11.972172 0.000000 0.000000 0.000001 -8.351721 15.997485 7.947758 12.120621 -7.733571 -0.388576 -1.916887 0.450426 -6.210165 -0.000000 -0.000004 -0.000000 -0.000000 0.000002 0.000000 -3.119181 -10.394488 -5.446475 21.036701 5.680094 0.244600 -23.365850 -1.180425 4.239118 -0.000004 0.000001 -0.000001 -0.000000 0.000000 -0.000000 
-0.653769 213.011780 1.015287 -3.766247 4.927552 4.422207 4.547530 -0.668910 1.076816 9.789338 -0.654193 2.995626 0.000000 0.000000 0.000000 9.794232 -0.592126 2.986812 -0.544865 1.982232 -5.822370 5.258740 2.411932 -6.675187 0.000001 -0.000001 0.000000 -0.216476 14.635955 -11.728230 0.000000 0.000000 0.000000 4.166837 -10.728385 -59.653663 0.000004 -51.016595 0.000013 19.677567 0.328041 -4.160753 -3.500385 23.141794 9.972905 -2.408850 12.775500 10.381870 -3.572561 4.191483 6.966309 0.000001 -0.000000 0.000001 0.080928 1.054709 -8.775022 0.139271 1.380632 -11.520063 0.000000 0.000000 0.000000 0.080631 1.052814 -8.759022 0.139660 1.382507 -11.536069 0.000001 -0.000001 0.000001 0.080926 1.054709 -8.775018 0.139274 1.380633 -11.520063 0.000000 0.000000 0.000000 0.683431 5.064139 -8.296778 0.133616 -2.674916 -12.020552 -0.000001 -0.000001 0.000001 1.100249 3.659959 6.697154 0.000000 0.000000 0.000000 -2.825908 11.105693 54.696151 0.000003 40.467156 -0.000017 -0.149445 -8.609110 -7.429752 -7.604780 -2.521696 -16.076744 4.602786 -15.232181 -8.617209 -1.023796 -3.032484 -6.344365 0.000000 -0.000001 -0.000004 0.672566 -2.988267 25.363079 0.151850 -1.448115 11.972165 -0.000001 -0.000000 -0.000000 0.672571 -2.988265 25.363081 0.151850 -1.448113 11.972180 0.000001 -0.000001 0.000000 0.672567 -2.988266 25.363079 0.151853 -1.448115 11.972164 -0.000001 -0.000001 -0.000001 0.672567 -2.988270 25.363079 0.151852 -1.448117 11.972162 -0.000004 -0.000000 0.000001 -9.056251 15.847306 8.021835 12.790183 -7.225522 -0.366038 -2.244093 0.489215 -6.233490 0.000002 -0.000012 0.000002 -0.000000 -0.000000 -0.000000 -3.519322 -10.370590 -5.449290 21.216132 5.645565 0.244391 -23.564639 -1.184951 4.168335 0.000001 -0.000000 0.000001 -0.000001 -0.000000 0.000000 
-0.652106 212.940674 0.935111 -3.488070 5.011293 4.400931 4.516545 -0.677889 1.082245 9.747389 -0.660639 2.989694 0.000000 0.000000 0.000000 9.752288 -0.598474 2.981115 -0.524614 2.045888 -5.949946 5.185576 2.561494 -6.667638 -0.000002 0.000001 -0.000000 -0.217905 14.614122 -11.691992 0.000000 0.000000 0.000000 4.068851 -10.818488 -59.539982 0.000016 -51.290049 0.000024 19.626672 0.508747 -4.295639 -3.500383 23.141804 9.972894 -2.408846 12.775497 10.381870 -3.572556 4.191486 6.966311 -0.000001 0.000000 -0.000000 0.080923 1.054705 -8.775024 0.139273 1.380644 -11.520049 -0.000003 0.000001 -0.000000 0.080629 1.052812 -8.759026 0.139654 1.382520 -11.536055 -0.000001 -0.000001 0.000000 0.080923 1.054703 -8.775022 0.139273 1.380643 -11.520049 -0.000004 0.000001 -0.000001 0.683445 5.064143 -8.296758 0.133609 -2.674894 -12.020563 -0.000001 -0.000000 -0.000000 1.097556 3.801374 6.436561 0.000000 0.000000 0.000000 -1.977650 12.089237 53.953925 -0.000013 41.267631 0.000030 -1.102676 -9.437449 -6.772099 -7.604786 -2.521695 -16.076751 4.602788 -15.232172 -8.617170 -1.023798 -3.032486 -6.344376 0.000001 -0.000000 0.000000 0.672560 -2.988253 25.363107 0.151858 -1.448124 11.972151 0.000001 0.000001 0.000001 0.672562 -2.988253 25.363096 0.151858 -1.448124 11.972153 0.000000 -0.000002 -0.000001 0.672559 -2.988252 25.363108 0.151860 -1.448124 11.972149 -0.000003 0.000000 0.000001 0.672559 -2.988256 25.363107 0.151857 -1.448125 11.972147 -0.000002 -0.000000 0.000000 -9.866563 15.722272 8.098432 13.632381 -6.303929 -0.323983 -2.605547 0.540393 -6.325271 -0.000000 -0.000005 -0.000001 -0.000000 -0.000000 0.000000 -3.979573 -10.339410 -5.460212 21.473421 5.580228 0.242886 -23.780492 -1.190635 4.094657 -0.000009 0.000000 -0.000001 -0.000001 0.000000 -0.000001 
